<svg version="1.1" id="Layer_1" xmlns="http://www.w3.org/2000/svg" xmlns:xlink="http://www.w3.org/1999/xlink" x="0px" y="0px"
	 width="100%" viewBox="0 0 512 512" enable-background="new 0 0 512 512" xml:space="preserve">
<path fill="#010000" opacity="1.000000" stroke="none" 
	d="
M513.000000,329.000000 
	C513.000000,390.320404 513.000000,451.640778 513.000000,512.980591 
	C342.382324,512.980591 171.764633,512.980591 1.073470,512.980591 
	C1.073470,342.418365 1.073470,171.836700 1.073470,1.127516 
	C171.545547,1.127516 342.091217,1.127516 513.000000,1.127516 
	C513.000000,106.689713 513.000000,212.379852 512.680176,318.871185 
	C509.753845,318.886780 507.147400,318.101135 504.374542,317.265350 
	C503.403870,310.104309 501.800262,307.737457 497.403656,308.046051 
	C491.152557,308.484802 492.051392,313.528992 491.943970,317.983459 
	C487.407898,317.957001 482.453125,317.283173 482.046570,323.468262 
	C481.566010,330.779694 487.548828,329.706268 491.973938,330.359711 
	C491.894379,334.843445 491.468994,339.417603 497.347290,339.944519 
	C501.932068,340.355469 503.530609,337.991028 504.392578,330.324921 
	C507.246185,329.885681 510.123077,329.442841 513.000000,329.000000 
M312.940216,270.028473 
	C312.940216,270.028473 312.879181,269.801117 312.879181,269.801117 
	C312.879181,269.801117 313.008240,269.940399 313.000458,270.880920 
	C313.275208,275.864716 313.509033,280.851227 313.834869,285.831665 
	C314.260986,292.344330 315.642700,293.162384 322.115570,290.668457 
	C321.966064,290.084930 321.896423,289.438202 321.641418,288.875397 
	C318.764801,282.525696 315.859711,276.188904 312.940216,270.028473 
M376.803741,324.106812 
	C385.510559,322.714935 394.220551,321.342346 402.923096,319.924225 
	C408.442932,319.024750 411.096802,315.816132 410.214142,311.217194 
	C409.395691,306.952911 406.149017,305.410034 400.442841,306.348938 
	C350.376038,314.587341 300.359009,323.152435 250.207962,330.843018 
	C229.294083,334.050171 211.600586,341.834656 199.100449,359.351593 
	C189.628860,372.624542 180.419769,386.086548 171.239670,399.563721 
	C169.985016,401.405670 169.086899,403.773895 168.861893,405.983795 
	C167.979767,414.647491 173.932922,420.123993 184.008896,420.125610 
	C265.984009,420.138916 347.959106,420.133636 429.934204,420.130646 
	C431.099884,420.130585 432.275879,420.178650 433.429352,420.048065 
	C437.326202,419.606934 440.024109,417.003387 439.554138,413.519836 
	C439.210968,410.976654 436.611176,408.360901 434.372070,406.596405 
	C433.093506,405.588898 430.521973,406.130402 428.532593,406.130005 
	C351.056122,406.114380 273.579620,406.141266 196.103394,406.004730 
	C193.635315,406.000397 189.897522,404.974274 189.054489,403.279175 
	C188.177078,401.514954 189.524261,397.989807 190.891724,395.877472 
	C196.676788,386.941223 202.867508,378.268677 208.842758,369.454193 
	C217.708694,356.375488 229.834518,348.381500 245.457336,345.781433 
	C259.076813,343.514801 272.697083,341.252747 286.319611,339.004822 
	C316.192566,334.075317 346.067200,329.156067 376.803741,324.106812 
M275.527435,144.076279 
	C281.642303,144.076279 287.757172,144.076279 294.070007,144.076279 
	C294.311768,137.992981 292.388306,131.616257 298.332214,128.846664 
	C303.128784,126.611664 308.722229,126.086830 313.923065,124.812881 
	C312.587494,110.792419 317.185150,96.641464 310.619324,82.752907 
	C277.889404,87.841942 244.615723,93.015526 211.257675,98.202232 
	C212.023117,103.223778 212.605484,107.676544 213.405136,112.089935 
	C214.044052,115.616211 213.023865,118.206360 209.397034,118.846443 
	C205.949249,119.454926 204.244598,117.384895 203.736725,114.059044 
	C203.037460,109.479843 202.196625,104.922256 201.329544,99.846832 
	C195.095337,100.807030 189.112518,101.728508 182.777451,102.704247 
	C183.738693,117.546272 184.670395,131.932083 185.622589,146.634308 
	C215.651398,145.773270 245.095398,144.929001 275.527435,144.076279 
M279.368439,297.985138 
	C280.800201,297.684845 282.231934,297.384521 283.476379,297.123505 
	C283.647003,296.641815 283.778137,296.466248 283.734772,296.366516 
	C263.655609,250.193710 243.573395,204.022202 223.416229,157.883438 
	C222.972900,156.868668 221.685242,155.538589 220.768707,155.520691 
	C211.719009,155.343933 202.664520,155.413818 192.659271,155.413818 
	C214.204376,204.983185 235.116440,253.096130 256.178528,301.554230 
	C263.804596,300.368530 271.172211,299.222992 279.368439,297.985138 
M378.615234,232.882599 
	C367.406555,207.134079 356.222198,181.374893 344.924133,155.665665 
	C344.298767,154.242599 342.763092,152.228683 341.596863,152.191498 
	C332.538391,151.902588 323.466553,152.031967 313.462433,152.031967 
	C333.006439,196.942245 351.878754,240.308960 370.807648,283.805695 
	C380.188629,282.315155 389.134552,280.893738 398.748932,279.366089 
	C391.952118,263.672699 385.435699,248.626678 378.615234,232.882599 
M372.866180,194.687973 
	C384.947266,222.399994 397.028351,250.112030 409.195099,278.020599 
	C418.575378,276.525665 427.657166,275.078278 436.740387,273.630676 
	C436.622192,272.808319 436.644897,272.457581 436.520233,272.170868 
	C419.350952,232.680481 402.179718,193.190918 384.943878,153.729584 
	C384.484619,152.678055 383.306915,151.153503 382.486206,151.167175 
	C373.292450,151.320267 364.102997,151.732483 354.250671,152.099609 
	C360.592102,166.626434 366.567047,180.313675 372.866180,194.687973 
M271.930267,243.637573 
	C278.363281,258.411804 284.794556,273.186768 291.229889,287.959991 
	C294.832062,296.229309 294.835663,296.230225 303.570770,294.091858 
	C303.873383,294.017731 304.142517,293.807007 304.397339,293.675415 
	C303.919983,286.899292 303.149994,280.153961 303.024231,273.396637 
	C302.652771,253.437973 299.369141,234.462387 290.169922,216.222931 
	C280.014740,196.087921 271.845612,174.951233 263.098785,154.909241 
	C253.023331,154.909241 243.484558,154.909241 233.147537,154.909241 
	C246.245499,184.864212 258.940979,213.898727 271.930267,243.637573 
M213.368530,228.069794 
	C204.905380,208.657455 196.442245,189.245117 187.979095,169.832779 
	C187.249939,171.044678 187.196136,171.995544 187.257812,172.938873 
	C188.833237,197.039978 190.388931,221.142487 192.062271,245.236832 
	C192.207245,247.324173 192.911514,249.456253 193.748199,251.398621 
	C199.994827,265.900360 206.340576,280.359375 212.654633,294.832062 
	C214.495667,299.052002 216.334610,303.272827 218.216507,307.589600 
	C227.709305,306.094543 236.696838,304.679077 246.172302,303.186737 
	C235.202515,278.002808 224.472412,253.369156 213.368530,228.069794 
M403.322205,171.194168 
	C417.976776,204.771240 432.631378,238.348312 447.244263,271.829865 
	C448.566986,271.589874 449.217072,271.458557 449.871521,271.355255 
	C458.475586,269.996857 458.450378,270.004120 456.280731,261.254913 
	C452.482666,245.939194 448.816071,230.590195 444.917603,215.300217 
	C439.593597,194.419235 435.884949,173.020294 425.678589,153.671249 
	C424.921600,152.236176 423.507599,150.128616 422.341309,150.090271 
	C413.276855,149.792236 404.198181,149.925644 394.149414,149.925644 
	C397.542084,157.764908 400.294342,164.124405 403.322205,171.194168 
M340.373077,288.748444 
	C346.922180,287.724640 353.471313,286.700836 360.780701,285.558197 
	C342.681763,243.913849 324.758911,202.674728 306.836090,161.435608 
	C307.042206,181.019974 309.006317,200.257004 309.292358,219.518936 
	C309.514465,234.476837 313.994415,247.795380 320.174744,260.972382 
	C324.604675,270.417419 328.583984,280.073853 332.781952,289.676208 
	C335.272430,289.378479 337.404602,289.123596 340.373077,288.748444 
M362.193054,471.094055 
	C362.787964,472.284912 363.320831,473.511749 363.987274,474.661133 
	C371.385315,487.420654 387.020935,492.714233 400.832581,487.156250 
	C414.287170,481.741943 421.910095,466.828735 418.350616,452.884766 
	C414.092804,436.205261 397.664581,426.657745 381.319031,431.363190 
	C364.772522,436.126526 356.290344,453.205902 362.193054,471.094055 
M202.604782,435.011200 
	C189.874817,444.086975 185.708298,458.810181 192.020737,472.412018 
	C197.966949,485.224731 212.643768,492.137085 226.221817,488.387573 
	C238.098404,485.107941 245.604599,477.282715 247.777939,465.271027 
	C249.976776,453.118469 246.019577,442.690552 235.683258,435.579590 
	C225.264481,428.411865 214.244614,428.253418 202.604782,435.011200 
M408.102051,135.845444 
	C403.694489,136.775452 401.525848,134.797409 400.969635,130.504837 
	C400.611572,127.741867 400.047180,125.005646 399.499298,121.815048 
	C374.833710,125.626076 350.470917,129.390320 325.794006,133.203094 
	C326.325562,136.465988 326.769043,139.188171 327.289398,142.382187 
	C360.256378,141.527252 392.955872,140.679260 426.201294,139.817108 
	C424.405945,132.571625 422.714966,125.747467 420.955994,118.648903 
	C417.011505,119.206520 413.615143,119.686653 409.747070,120.233467 
	C410.162720,123.130638 410.939117,125.733582 410.785400,128.280380 
	C410.639099,130.704102 409.521393,133.069183 408.102051,135.845444 
M56.140305,87.445663 
	C44.232269,86.312889 32.331585,85.093079 20.412842,84.087173 
	C15.126570,83.641037 11.564537,86.414772 11.039720,90.863846 
	C10.496957,95.465050 13.660116,99.225883 19.067627,99.747566 
	C37.919754,101.566284 56.783310,103.272118 75.652748,104.902435 
	C81.160255,105.378296 84.616943,102.847099 85.204498,98.409515 
	C85.838921,93.617943 83.075218,90.250191 77.384430,89.542664 
	C70.628235,88.702675 63.826656,88.227776 56.140305,87.445663 
M334.311371,88.803665 
	C325.060272,98.507729 321.565674,109.859360 324.311554,123.552849 
	C332.860199,122.223099 341.140045,120.935158 349.807983,119.586845 
	C346.751984,107.407997 343.825134,95.743988 340.742310,83.458305 
	C338.383942,85.387527 336.600494,86.846451 334.311371,88.803665 
M297.931915,197.520645 
	C296.945953,182.931458 295.959991,168.342285 294.981934,153.869843 
	C287.809418,153.869843 281.046539,153.869843 273.533783,153.869843 
	C281.544647,172.276550 289.266876,190.020142 296.989136,207.763733 
	C297.315948,207.640717 297.642792,207.517700 297.969604,207.394684 
	C297.969604,204.421188 297.969604,201.447708 297.931915,197.520645 
M153.276398,57.959694 
	C150.537277,59.339767 147.798157,60.719845 144.459381,62.402046 
	C152.876190,65.429939 158.956802,70.372421 161.461395,79.278725 
	C164.176697,70.485146 170.048965,65.203476 178.330719,61.969982 
	C169.187668,60.053116 164.564255,53.914188 161.965408,46.440254 
	C159.147583,50.342411 156.533112,53.962963 153.276398,57.959694 
M203.464706,309.943268 
	C204.777405,309.580811 206.090088,309.218353 207.688553,308.776978 
	C203.281662,298.637115 199.140976,289.109772 195.000290,279.582397 
	C194.849213,287.697021 195.517944,295.485626 195.887238,303.288452 
	C196.100235,307.789307 198.069992,310.081940 203.464706,309.943268 
M119.563400,284.949463 
	C121.642509,281.745911 122.246490,278.487000 119.091164,275.691742 
	C116.134132,273.072113 112.466171,273.277863 110.506462,276.357513 
	C109.235596,278.354614 109.099403,282.215515 110.203728,284.326355 
	C112.063065,287.880341 115.606049,288.272644 119.563400,284.949463 
M471.001251,362.503937 
	C470.917053,366.662720 472.859314,368.983765 477.109161,368.977295 
	C480.824219,368.971649 482.642853,366.984589 483.040253,363.280548 
	C483.499634,358.999481 481.336304,356.412445 477.540894,356.192230 
	C474.356750,356.007477 470.996948,357.259583 471.001251,362.503937 
M125.013771,101.513931 
	C122.011940,104.566277 121.971634,107.846062 124.592430,111.050240 
	C126.792358,113.739861 129.608231,113.857231 132.418732,112.008904 
	C135.784119,109.795631 135.982697,106.082077 134.471481,103.296738 
	C132.780670,100.180389 129.377823,98.813164 125.013771,101.513931 
M315.903412,135.570801 
	C311.969147,135.919861 308.034882,136.268921 303.893066,136.636383 
	C304.132935,139.281006 304.290222,141.015015 304.438599,142.651138 
	C308.847809,142.651138 312.839508,142.651138 317.211151,142.651138 
	C316.799561,140.235580 316.471497,138.310028 315.903412,135.570801 
M324.052216,85.298515 
	C325.409668,83.754143 326.767120,82.209770 329.033234,79.631577 
	C325.650055,80.285881 323.568420,80.688461 320.451080,81.291351 
	C321.826965,83.262062 322.720886,84.542458 324.052216,85.298515 
z"/>
<path fill="#70D6F9" opacity="1.000000" stroke="none" 
	d="
M513.000000,328.545898 
	C510.123077,329.442841 507.246185,329.885681 504.392578,330.324921 
	C503.530609,337.991028 501.932068,340.355469 497.347290,339.944519 
	C491.468994,339.417603 491.894379,334.843445 491.973938,330.359711 
	C487.548828,329.706268 481.566010,330.779694 482.046570,323.468262 
	C482.453125,317.283173 487.407898,317.957001 491.943970,317.983459 
	C492.051392,313.528992 491.152557,308.484802 497.403656,308.046051 
	C501.800262,307.737457 503.403870,310.104309 504.374542,317.265350 
	C507.147400,318.101135 509.753845,318.886780 512.680176,319.336182 
	C513.000000,322.030609 513.000000,325.061188 513.000000,328.545898 
z"/>
<path fill="#D7E2ED" opacity="1.000000" stroke="none" 
	d="
M376.372437,324.169739 
	C346.067200,329.156067 316.192566,334.075317 286.319611,339.004822 
	C272.697083,341.252747 259.076813,343.514801 245.457336,345.781433 
	C229.834518,348.381500 217.708694,356.375488 208.842758,369.454193 
	C202.867508,378.268677 196.676788,386.941223 190.891724,395.877472 
	C189.524261,397.989807 188.177078,401.514954 189.054489,403.279175 
	C189.897522,404.974274 193.635315,406.000397 196.103394,406.004730 
	C273.579620,406.141266 351.056122,406.114380 428.532593,406.130005 
	C430.521973,406.130402 433.093506,405.588898 434.372070,406.596405 
	C436.611176,408.360901 439.210968,410.976654 439.554138,413.519836 
	C440.024109,417.003387 437.326202,419.606934 433.429352,420.048065 
	C432.275879,420.178650 431.099884,420.130585 429.934204,420.130646 
	C347.959106,420.133636 265.984009,420.138916 184.008896,420.125610 
	C173.932922,420.123993 167.979767,414.647491 168.861893,405.983795 
	C169.086899,403.773895 169.985016,401.405670 171.239670,399.563721 
	C180.419769,386.086548 189.628860,372.624542 199.100449,359.351593 
	C211.600586,341.834656 229.294083,334.050171 250.207962,330.843018 
	C300.359009,323.152435 350.376038,314.587341 400.442841,306.348938 
	C406.149017,305.410034 409.395691,306.952911 410.214142,311.217194 
	C411.096802,315.816132 408.442932,319.024750 402.923096,319.924225 
	C394.220551,321.342346 385.510559,322.714935 376.372437,324.169739 
z"/>
<path fill="#F3C64B" opacity="1.000000" stroke="none" 
	d="
M275.033417,144.080505 
	C245.095398,144.929001 215.651398,145.773270 185.622589,146.634308 
	C184.670395,131.932083 183.738693,117.546272 182.777451,102.704247 
	C189.112518,101.728508 195.095337,100.807030 201.329544,99.846832 
	C202.196625,104.922256 203.037460,109.479843 203.736725,114.059044 
	C204.244598,117.384895 205.949249,119.454926 209.397034,118.846443 
	C213.023865,118.206360 214.044052,115.616211 213.405136,112.089935 
	C212.605484,107.676544 212.023117,103.223778 211.257675,98.202232 
	C244.615723,93.015526 277.889404,87.841942 310.619324,82.752907 
	C317.185150,96.641464 312.587494,110.792419 313.923065,124.812881 
	C308.722229,126.086830 303.128784,126.611664 298.332214,128.846664 
	C292.388306,131.616257 294.311768,137.992981 294.070007,144.076279 
	C287.757172,144.076279 281.642303,144.076279 275.033417,144.080505 
z"/>
<path fill="#F3C64B" opacity="1.000000" stroke="none" 
	d="
M278.954102,298.031311 
	C271.172211,299.222992 263.804596,300.368530 256.178528,301.554230 
	C235.116440,253.096130 214.204376,204.983185 192.659271,155.413818 
	C202.664520,155.413818 211.719009,155.343933 220.768707,155.520691 
	C221.685242,155.538589 222.972900,156.868668 223.416229,157.883438 
	C243.573395,204.022202 263.655609,250.193710 283.734772,296.366516 
	C283.778137,296.466248 283.647003,296.641815 283.476379,297.123505 
	C282.231934,297.384521 280.800201,297.684845 278.954102,298.031311 
z"/>
<path fill="#F9647D" opacity="1.000000" stroke="none" 
	d="
M378.767273,233.231628 
	C385.435699,248.626678 391.952118,263.672699 398.748932,279.366089 
	C389.134552,280.893738 380.188629,282.315155 370.807648,283.805695 
	C351.878754,240.308960 333.006439,196.942245 313.462433,152.031967 
	C323.466553,152.031967 332.538391,151.902588 341.596863,152.191498 
	C342.763092,152.228683 344.298767,154.242599 344.924133,155.665665 
	C356.222198,181.374893 367.406555,207.134079 378.767273,233.231628 
z"/>
<path fill="#F9647D" opacity="1.000000" stroke="none" 
	d="
M372.704071,194.344437 
	C366.567047,180.313675 360.592102,166.626434 354.250671,152.099609 
	C364.102997,151.732483 373.292450,151.320267 382.486206,151.167175 
	C383.306915,151.153503 384.484619,152.678055 384.943878,153.729584 
	C402.179718,193.190918 419.350952,232.680481 436.520233,272.170868 
	C436.644897,272.457581 436.622192,272.808319 436.740387,273.630676 
	C427.657166,275.078278 418.575378,276.525665 409.195099,278.020599 
	C397.028351,250.112030 384.947266,222.399994 372.704071,194.344437 
z"/>
<path fill="#F2C64B" opacity="1.000000" stroke="none" 
	d="
M271.783386,243.285416 
	C258.940979,213.898727 246.245499,184.864212 233.147537,154.909241 
	C243.484558,154.909241 253.023331,154.909241 263.098785,154.909241 
	C271.845612,174.951233 280.014740,196.087921 290.169922,216.222931 
	C299.369141,234.462387 302.652771,253.437973 303.024231,273.396637 
	C303.149994,280.153961 303.919983,286.899292 304.397339,293.675415 
	C304.142517,293.807007 303.873383,294.017731 303.570770,294.091858 
	C294.835663,296.230225 294.832062,296.229309 291.229889,287.959991 
	C284.794556,273.186768 278.363281,258.411804 271.783386,243.285416 
z"/>
<path fill="#F2C54B" opacity="1.000000" stroke="none" 
	d="
M213.555420,228.402649 
	C224.472412,253.369156 235.202515,278.002808 246.172302,303.186737 
	C236.696838,304.679077 227.709305,306.094543 218.216507,307.589600 
	C216.334610,303.272827 214.495667,299.052002 212.654633,294.832062 
	C206.340576,280.359375 199.994827,265.900360 193.748199,251.398621 
	C192.911514,249.456253 192.207245,247.324173 192.062271,245.236832 
	C190.388931,221.142487 188.833237,197.039978 187.257812,172.938873 
	C187.196136,171.995544 187.249939,171.044678 187.979095,169.832779 
	C196.442245,189.245117 204.905380,208.657455 213.555420,228.402649 
z"/>
<path fill="#F9647C" opacity="1.000000" stroke="none" 
	d="
M403.184418,170.839035 
	C400.294342,164.124405 397.542084,157.764908 394.149414,149.925644 
	C404.198181,149.925644 413.276855,149.792236 422.341309,150.090271 
	C423.507599,150.128616 424.921600,152.236176 425.678589,153.671249 
	C435.884949,173.020294 439.593597,194.419235 444.917603,215.300217 
	C448.816071,230.590195 452.482666,245.939194 456.280731,261.254913 
	C458.450378,270.004120 458.475586,269.996857 449.871521,271.355255 
	C449.217072,271.458557 448.566986,271.589874 447.244263,271.829865 
	C432.631378,238.348312 417.976776,204.771240 403.184418,170.839035 
z"/>
<path fill="#F8647C" opacity="1.000000" stroke="none" 
	d="
M339.954895,288.808594 
	C337.404602,289.123596 335.272430,289.378479 332.781952,289.676208 
	C328.583984,280.073853 324.604675,270.417419 320.174744,260.972382 
	C313.994415,247.795380 309.514465,234.476837 309.292358,219.518936 
	C309.006317,200.257004 307.042206,181.019974 306.836090,161.435608 
	C324.758911,202.674728 342.681763,243.913849 360.780701,285.558197 
	C353.471313,286.700836 346.922180,287.724640 339.954895,288.808594 
z"/>
<path fill="#28569C" opacity="1.000000" stroke="none" 
	d="
M362.075867,470.720215 
	C356.290344,453.205902 364.772522,436.126526 381.319031,431.363190 
	C397.664581,426.657745 414.092804,436.205261 418.350616,452.884766 
	C421.910095,466.828735 414.287170,481.741943 400.832581,487.156250 
	C387.020935,492.714233 371.385315,487.420654 363.987274,474.661133 
	C363.320831,473.511749 362.787964,472.284912 362.075867,470.720215 
M377.646881,447.126404 
	C371.114716,454.794556 370.345459,462.638580 375.420929,469.824310 
	C379.874115,476.129059 388.167755,478.859772 395.292511,476.164062 
	C402.095825,473.589966 406.228760,468.594666 406.874664,461.340668 
	C407.498688,454.332520 404.666656,448.591644 398.554260,444.967072 
	C391.494263,440.780548 384.614838,441.610596 377.646881,447.126404 
z"/>
<path fill="#28569C" opacity="1.000000" stroke="none" 
	d="
M202.918243,434.823059 
	C214.244614,428.253418 225.264481,428.411865 235.683258,435.579590 
	C246.019577,442.690552 249.976776,453.118469 247.777939,465.271027 
	C245.604599,477.282715 238.098404,485.107941 226.221817,488.387573 
	C212.643768,492.137085 197.966949,485.224731 192.020737,472.412018 
	C185.708298,458.810181 189.874817,444.086975 202.918243,434.823059 
M214.661240,442.971924 
	C204.381332,446.421295 199.407532,454.974060 202.086838,464.594391 
	C204.530304,473.367920 213.911987,478.876038 222.821838,476.768127 
	C231.926971,474.614044 237.757767,465.330109 235.813797,456.082062 
	C233.888504,446.922821 225.138321,441.233429 214.661240,442.971924 
z"/>
<path fill="#F7637C" opacity="1.000000" stroke="none" 
	d="
M408.466431,135.652740 
	C409.521393,133.069183 410.639099,130.704102 410.785400,128.280380 
	C410.939117,125.733582 410.162720,123.130638 409.747070,120.233467 
	C413.615143,119.686653 417.011505,119.206520 420.955994,118.648903 
	C422.714966,125.747467 424.405945,132.571625 426.201294,139.817108 
	C392.955872,140.679260 360.256378,141.527252 327.289398,142.382187 
	C326.769043,139.188171 326.325562,136.465988 325.794006,133.203094 
	C350.470917,129.390320 374.833710,125.626076 399.499298,121.815048 
	C400.047180,125.005646 400.611572,127.741867 400.969635,130.504837 
	C401.525848,134.797409 403.694489,136.775452 408.466431,135.652740 
z"/>
<path fill="#F8637C" opacity="1.000000" stroke="none" 
	d="
M56.592522,87.520157 
	C63.826656,88.227776 70.628235,88.702675 77.384430,89.542664 
	C83.075218,90.250191 85.838921,93.617943 85.204498,98.409515 
	C84.616943,102.847099 81.160255,105.378296 75.652748,104.902435 
	C56.783310,103.272118 37.919754,101.566284 19.067627,99.747566 
	C13.660116,99.225883 10.496957,95.465050 11.039720,90.863846 
	C11.564537,86.414772 15.126570,83.641037 20.412842,84.087173 
	C32.331585,85.093079 44.232269,86.312889 56.592522,87.520157 
z"/>
<path fill="#EFC34A" opacity="1.000000" stroke="none" 
	d="
M334.564209,88.554520 
	C336.600494,86.846451 338.383942,85.387527 340.742310,83.458305 
	C343.825134,95.743988 346.751984,107.407997 349.807983,119.586845 
	C341.140045,120.935158 332.860199,122.223099 324.311554,123.552849 
	C321.565674,109.859360 325.060272,98.507729 334.564209,88.554520 
z"/>
<path fill="#EFC34A" opacity="1.000000" stroke="none" 
	d="
M297.950745,197.997437 
	C297.969604,201.447708 297.969604,204.421188 297.969604,207.394684 
	C297.642792,207.517700 297.315948,207.640717 296.989136,207.763733 
	C289.266876,190.020142 281.544647,172.276550 273.533783,153.869843 
	C281.046539,153.869843 287.809418,153.869843 294.981934,153.869843 
	C295.959991,168.342285 296.945953,182.931458 297.950745,197.997437 
z"/>
<path fill="#F5C84C" opacity="1.000000" stroke="none" 
	d="
M153.597519,57.771606 
	C156.533112,53.962963 159.147583,50.342411 161.965408,46.440254 
	C164.564255,53.914188 169.187668,60.053116 178.330719,61.969982 
	C170.048965,65.203476 164.176697,70.485146 161.461395,79.278725 
	C158.956802,70.372421 152.876190,65.429939 144.459381,62.402046 
	C147.798157,60.719845 150.537277,59.339767 153.597519,57.771606 
z"/>
<path fill="#E9BF48" opacity="1.000000" stroke="none" 
	d="
M203.045593,309.974182 
	C198.069992,310.081940 196.100235,307.789307 195.887238,303.288452 
	C195.517944,295.485626 194.849213,287.697021 195.000290,279.582397 
	C199.140976,289.109772 203.281662,298.637115 207.688553,308.776978 
	C206.090088,309.218353 204.777405,309.580811 203.045593,309.974182 
z"/>
<path fill="#87D147" opacity="1.000000" stroke="none" 
	d="
M119.271332,285.237549 
	C115.606049,288.272644 112.063065,287.880341 110.203728,284.326355 
	C109.099403,282.215515 109.235596,278.354614 110.506462,276.357513 
	C112.466171,273.277863 116.134132,273.072113 119.091164,275.691742 
	C122.246490,278.487000 121.642509,281.745911 119.271332,285.237549 
z"/>
<path fill="#F5C84C" opacity="1.000000" stroke="none" 
	d="
M471.001404,362.090820 
	C470.996948,357.259583 474.356750,356.007477 477.540894,356.192230 
	C481.336304,356.412445 483.499634,358.999481 483.040253,363.280548 
	C482.642853,366.984589 480.824219,368.971649 477.109161,368.977295 
	C472.859314,368.983765 470.917053,366.662720 471.001404,362.090820 
z"/>
<path fill="#FC657E" opacity="1.000000" stroke="none" 
	d="
M125.348267,101.289543 
	C129.377823,98.813164 132.780670,100.180389 134.471481,103.296738 
	C135.982697,106.082077 135.784119,109.795631 132.418732,112.008904 
	C129.608231,113.857231 126.792358,113.739861 124.592430,111.050240 
	C121.971634,107.846062 122.011940,104.566277 125.348267,101.289543 
z"/>
<path fill="#EA5E75" opacity="1.000000" stroke="none" 
	d="
M312.962280,269.848633 
	C315.859711,276.188904 318.764801,282.525696 321.641418,288.875397 
	C321.896423,289.438202 321.966064,290.084930 322.115570,290.668457 
	C315.642700,293.162384 314.260986,292.344330 313.834869,285.831665 
	C313.509033,280.851227 313.275208,275.864716 312.993408,270.387451 
	C312.986328,269.894012 312.962311,269.848633 312.962280,269.848633 
z"/>
<path fill="#F06078" opacity="1.000000" stroke="none" 
	d="
M316.023407,135.977631 
	C316.471497,138.310028 316.799561,140.235580 317.211151,142.651138 
	C312.839508,142.651138 308.847809,142.651138 304.438599,142.651138 
	C304.290222,141.015015 304.132935,139.281006 303.893066,136.636383 
	C308.034882,136.268921 311.969147,135.919861 316.023407,135.977631 
z"/>
<path fill="#C6A23E" opacity="1.000000" stroke="none" 
	d="
M323.833496,85.560684 
	C322.720886,84.542458 321.826965,83.262062 320.451080,81.291351 
	C323.568420,80.688461 325.650055,80.285881 329.033234,79.631577 
	C326.767120,82.209770 325.409668,83.754143 323.833496,85.560684 
z"/>
<path fill="#EA5E75" opacity="1.000000" stroke="none" 
	d="
M312.997284,269.917206 
	C313.008240,269.940399 312.879181,269.801117 312.879181,269.801117 
	C312.879181,269.801117 312.940216,270.028473 312.951263,269.938538 
	C312.962311,269.848633 312.986328,269.894012 312.997284,269.917206 
z"/>
<path fill="#010304" opacity="1.000000" stroke="none" 
	d="
M377.921295,446.883972 
	C384.614838,441.610596 391.494263,440.780548 398.554260,444.967072 
	C404.666656,448.591644 407.498688,454.332520 406.874664,461.340668 
	C406.228760,468.594666 402.095825,473.589966 395.292511,476.164062 
	C388.167755,478.859772 379.874115,476.129059 375.420929,469.824310 
	C370.345459,462.638580 371.114716,454.794556 377.921295,446.883972 
M396.175873,456.606659 
	C392.374176,451.671570 387.492676,450.970978 384.098389,454.972595 
	C381.641876,457.868622 381.465729,461.049255 383.706665,464.137299 
	C385.827179,467.059509 388.927826,467.941315 392.136688,466.627258 
	C396.205505,464.960999 397.831604,461.714874 396.175873,456.606659 
z"/>
<path fill="#010304" opacity="1.000000" stroke="none" 
	d="
M215.053223,442.905151 
	C225.138321,441.233429 233.888504,446.922821 235.813797,456.082062 
	C237.757767,465.330109 231.926971,474.614044 222.821838,476.768127 
	C213.911987,478.876038 204.530304,473.367920 202.086838,464.594391 
	C199.407532,454.974060 204.381332,446.421295 215.053223,442.905151 
M225.934631,457.988831 
	C224.818909,454.358093 222.197235,452.066315 218.594254,452.595856 
	C216.309875,452.931580 213.263580,454.737091 212.454407,456.674927 
	C211.558945,458.819305 211.913071,462.736542 213.393356,464.288757 
	C215.049622,466.025543 218.763840,466.943481 221.250137,466.470490 
	C224.770813,465.800690 226.415634,462.590393 225.934631,457.988831 
z"/>
<path fill="#4F8BD4" opacity="1.000000" stroke="none" 
	d="
M396.347015,456.954529 
	C397.831604,461.714874 396.205505,464.960999 392.136688,466.627258 
	C388.927826,467.941315 385.827179,467.059509 383.706665,464.137299 
	C381.465729,461.049255 381.641876,457.868622 384.098389,454.972595 
	C387.492676,450.970978 392.374176,451.671570 396.347015,456.954529 
z"/>
<path fill="#4F8BD4" opacity="1.000000" stroke="none" 
	d="
M225.987335,458.382507 
	C226.415634,462.590393 224.770813,465.800690 221.250137,466.470490 
	C218.763840,466.943481 215.049622,466.025543 213.393356,464.288757 
	C211.913071,462.736542 211.558945,458.819305 212.454407,456.674927 
	C213.263580,454.737091 216.309875,452.931580 218.594254,452.595856 
	C222.197235,452.066315 224.818909,454.358093 225.987335,458.382507 
z"/>
</svg>